<svg id="Layer_1" data-name="Layer 1" xmlns="http://www.w3.org/2000/svg" viewBox="0 0 290.91 294.24"><defs><style>.cls-1{fill:#ff4338;}</style></defs><title>nwg_icon</title><path class="cls-1" d="M95.16,236.64c-6.44-4-13-8.73-17.92-13.62-43.11-43.11-41-110.94,2.06-154A110.34,110.34,0,0,1,202.55,46.35,117.11,117.11,0,0,0,93.48,253.62l11.3-11.3h0Z" transform="translate(-4.54 -3.33)"/><path class="cls-1" d="M195.24,58.59h0L206.52,47.3A117.11,117.11,0,0,1,97.44,254.56,110.4,110.4,0,0,0,220.7,231.92c43.11-43.09,45.18-110.93,2.08-154-4.89-4.88-11.5-9.59-17.95-13.63Z" transform="translate(-4.54 -3.33)"/><path class="cls-1" d="M43.18,82.49c.34-.7,10-15.75,16.89-22.22C113.47,6.85,197.56,9.4,251,62.81A136.9,136.9,0,0,1,279,215.62,145.17,145.17,0,0,0,22.12,80.41l14,14h0s5.15-8.68,7-11.91" transform="translate(-4.54 -3.33)"/><path class="cls-1" d="M263.87,206.5l14,14A145.15,145.15,0,0,1,21,85.3,136.83,136.83,0,0,0,49,238.1c53.42,53.4,137.51,56,190.93,2.53,6-6,11.86-14.24,16.9-22.22,0,0,5.1-7.88,7-11.91" transform="translate(-4.54 -3.33)"/><path class="cls-1" d="M238.93,124.53H226.3v0H84.53v8.54h144a83,83,0,0,1,2.41,17.62c0,48.15-39,84.9-87.21,84.9A87.23,87.23,0,0,1,62.2,179.41a92.53,92.53,0,0,0,176.73-54.88" transform="translate(-4.54 -3.33)"/><polygon class="cls-1" points="127.34 160.89 127.75 160.89 140.97 160.89 141.42 160.89 141.55 160.47 146.02 147.77 150.47 160.47 150.63 160.89 151.08 160.89 164.28 160.89 164.72 160.89 164.87 160.49 174.99 134.21 175.3 133.36 174.4 133.36 163.56 133.36 163.11 133.36 162.94 133.81 157.48 151.32 151.16 133.77 151.01 133.36 150.56 133.36 141.49 133.36 141.04 133.36 140.88 133.77 134.56 151.32 129.08 133.81 128.95 133.36 128.49 133.36 117.63 133.36 116.74 133.36 117.06 134.21 127.16 160.49 127.34 160.89"/><path class="cls-1" d="M106.38,136.75H85.07v27.57H96.26V150.43c0-4.21,3.31-5.1,6.09-5.1h2.28c2.77,0,5.94,2,6.56,3.48,0,0,5.22,15.07,5.22,15.07l.14.43h11.25l-.29-.84-5.23-15.09c-4.76-11.63-9.91-11.63-15.9-11.63" transform="translate(-4.54 -3.33)"/><path class="cls-1" d="M66.42,176.38h135.9a14.25,14.25,0,0,0,10.75-3.9,12.33,12.33,0,0,0,4.12-8.66V136.72H193c-8.59,0-11.24,3.4-13.38,10.07l-1.78,5.76c-.07.2-2.21,5.88.06,9.33a5.91,5.91,0,0,0,5,2.44h14.17s.63,0,.63,0h8.73c-.42,2.56-2,3.52-5.62,3.52H71.51a82.69,82.69,0,0,1-2.43-17.64c0-48.16,39-84.89,87.22-84.89a87.21,87.21,0,0,1,81.5,56.21A92.52,92.52,0,0,0,61.08,176.36h5.34Zm136.13-20.91H191.22a3.39,3.39,0,0,1-2.52-.52c-.37-.46-.22-1.23-.06-1.93a2.66,2.66,0,0,0,.05-.39c.07-.28.73-3.22.86-3.59a11.56,11.56,0,0,0,.69-1.27c.65-1.48,1.25-2.86,6.06-2.9h6.32c4.63,0,5.36,1.13,5.36,4.72v1.08c0,3.19-.88,4.81-5.44,4.81" transform="translate(-4.54 -3.33)"/></svg>